<svg viewBox="-683 -318 1366 636" width="1366" height="636" style="background-color: rgb(255, 255, 255);" xmlns="http://www.w3.org/2000/svg"><path d="M-112.97158351754126,2.40375944400284L-131.038017080947,-1.5742041165698653M-131.038017080947,-98.13349978125119L-131.038017080947,-1.5742041165698653M-131.038017080947,-1.5742041165698653L-216.46280584238943,21.61891786298826" style="fill:none;stroke:rgb(0,0,0);stroke-width:1;stroke-linecap:round"></path><path d="M-112.97158351754126,2.403759444002842L-131.03801708094696,-1.5742041165698635L-131.03801708094696,-98.1334997812512z" style="fill:rgb(238,238,238); fill-opacity: 0.4"></path><path d="M-112.97158351754126,-94.15553622067848L-112.97158351754126,2.40375944400284M-112.97158351754126,2.40375944400284L-198.39637227898368,25.596881423560966M-112.97158351754126,-94.15553622067848L-131.038017080947,-98.13349978125119M-131.038017080947,-98.13349978125119L-216.46280584238943,-74.94037780169307" style="fill:none;stroke:rgb(0,0,0);stroke-width:1;stroke-linecap:round"></path><path d="M-112.97158351754126,-94.1555362206785L-112.97158351754126,2.403759444002842L-131.03801708094696,-98.1334997812512zM-216.46280584238943,21.61891786298826L-131.03801708094696,-1.5742041165698635L-112.97158351754126,2.403759444002842z" style="fill:rgb(238,238,238); fill-opacity: 0.4"></path><path d="M-112.97158351754126,-94.15553622067848L-198.39637227898368,-70.96241424112037" style="fill:none;stroke:rgb(0,0,0);stroke-width:1;stroke-linecap:round"></path><path d="M-131.03801708094696,-98.1334997812512L-131.03801708094696,-1.5742041165698635L-216.46280584238943,-74.94037780169307z" style="fill:rgb(238,238,238); fill-opacity: 0.4"></path><path d="M-33.04529966545354,14.647010113711925L-85.3076841336825,3.139599961419265M-85.3076841336825,-77.57021815568335L-85.3076841336825,3.139599961419265M-85.3076841336825,3.139599961419265L-160.28116753806376,23.4951568324601" style="fill:none;stroke:rgb(0,0,0);stroke-width:1;stroke-linecap:round"></path><path d="M-198.39637227898368,25.596881423560966L-112.97158351754126,2.403759444002842L-112.97158351754126,-94.1555362206785zM-198.39637227898368,-70.96241424112037L-112.97158351754126,-94.1555362206785L-131.03801708094696,-98.1334997812512z" style="fill:rgb(238,238,238); fill-opacity: 0.4"></path><path d="M-189.74894702031932,-99.59331865240377h22.130205712807694v11.065102856403913h-22.130205712807694z" style="fill:rgb(255,255,255)"></path><path d="M-131.03801708094696,-1.5742041165698635L-216.46280584238943,21.61891786298826L-216.46280584238943,-74.94037780169307zM-198.39637227898368,25.596881423560966L-216.46280584238943,21.61891786298826L-112.97158351754126,2.403759444002842z" style="fill:rgb(238,238,238); fill-opacity: 0.4"></path><path d="M-33.04529966545354,-66.0628080033907L-85.3076841336825,-77.57021815568335M-85.3076841336825,-77.57021815568335L-160.28116753806376,-57.21466128464252" style="fill:none;stroke:rgb(0,0,0);stroke-width:1;stroke-linecap:round"></path><path d="M-33.04529966545354,14.647010113711925L-85.30768413368249,3.139599961419267L-85.30768413368249,-77.57021815568335z" style="fill:rgb(238,238,238); fill-opacity: 0.4"></path><path d="M-48.05992805920962,-24.646143158260568L-100.32231252743857,-36.15355331055323M-100.32231252743857,-43.060787453734626L-100.32231252743857,-36.15355331055323M-100.32231252743857,-36.15355331055323L-105.08924210435967,-34.859315645485715" style="fill:none;stroke:rgb(0,0,0);stroke-width:1;stroke-linecap:round"></path><path d="M-112.28995005154354,-41.44106345444768h22.130205712807882v11.065102856403913h-22.130205712807882z" style="fill:rgb(255,255,255)"></path><path d="M-48.05992805920962,-31.55337730144197L-100.32231252743857,-43.060787453734626M-100.32231252743857,-43.060787453734626L-105.08924210435967,-41.76654978866712" style="fill:none;stroke:rgb(0,0,0);stroke-width:1;stroke-linecap:round"></path><path d="M-100.32231252743857,-43.060787453734626L-100.32231252743857,-36.15355331055323L-105.08924210435967,-41.76654978866712zM-100.32231252743857,-36.15355331055323L-105.08924210435967,-34.859315645485715L-105.08924210435967,-41.76654978866712z" style="fill:rgb(153,221,255); fill-opacity: 0.4"></path><path d="M-105.08924210435967,-41.76654978866712L-105.08924210435967,-34.859315645485715M-105.08924210435967,-34.859315645485715L-52.82685763613072,-23.35190549319306M-105.08924210435967,-41.76654978866712L-52.82685763613072,-30.259139636374456" style="fill:none;stroke:rgb(0,0,0);stroke-width:1;stroke-linecap:round"></path><path d="M-116.15434470616489,-50.28304280234849h22.130205712807882v11.065102856403913h-22.130205712807882z" style="fill:rgb(255,255,255)"></path><path d="M-181.57964261049483,-44.28618761194064L-199.64607617390055,-48.264151172513344M-199.64607617390055,-55.17138531569475L-199.64607617390055,-48.264151172513344M-199.64607617390055,-48.264151172513344L-204.41300575082164,-46.96991350744584" style="fill:none;stroke:rgb(0,0,0);stroke-width:1;stroke-linecap:round"></path><path d="M-216.46280584238943,-74.94037780169307L-198.39637227898368,-70.96241424112037L-131.03801708094696,-98.1334997812512z" style="fill:rgb(238,238,238); fill-opacity: 0.4"></path><path d="M-211.61371374498782,-53.551661326752644h22.130205712807694v11.065102856403913h-22.130205712807694z" style="fill:rgb(255,255,255)"></path><path d="M-216.46280584238943,-74.94037780169307L-216.46280584238943,21.61891786298826M-216.46280584238943,21.61891786298826L-198.39637227898368,25.596881423560966M-181.57964261049483,-51.19342175512204L-199.64607617390055,-55.17138531569475M-199.64607617390055,-55.17138531569475L-204.41300575082164,-53.877147650627236" style="fill:none;stroke:rgb(0,0,0);stroke-width:1;stroke-linecap:round"></path><path d="M-85.30768413368249,-77.57021815568335L-85.30768413368249,3.139599961419267L-160.28116753806376,-57.21466128464252z" style="fill:rgb(238,238,238); fill-opacity: 0.4"></path><path d="M-199.64607617390052,-55.17138531569475L-199.64607617390052,-48.264151172513344L-204.4130057508216,-53.877147650627236z" style="fill:rgb(153,221,255); fill-opacity: 0.4"></path><path d="M-198.39637227898368,-70.96241424112037L-198.39637227898368,25.596881423560966L-112.97158351754126,-94.1555362206785zM-160.28116753806376,23.4951568324601L-85.30768413368249,3.139599961419267L-33.04529966545354,14.647010113711925z" style="fill:rgb(238,238,238); fill-opacity: 0.4"></path><path d="M-199.64607617390052,-48.264151172513344L-204.4130057508216,-46.96991350744584L-204.4130057508216,-53.877147650627236zM-48.059928059209625,-24.646143158260568L-100.32231252743857,-36.15355331055323L-100.32231252743857,-43.060787453734626z" style="fill:rgb(153,221,255); fill-opacity: 0.4"></path><path d="M-204.41300575082164,-53.877147650627236L-204.41300575082164,-46.96991350744584M-204.41300575082164,-46.96991350744584L-186.34657218741592,-42.99194994687313" style="fill:none;stroke:rgb(0,0,0);stroke-width:1;stroke-linecap:round"></path><path d="M-33.04529966545354,-66.0628080033907L-33.04529966545354,14.647010113711925L-85.30768413368249,-77.57021815568335z" style="fill:rgb(238,238,238); fill-opacity: 0.4"></path><path d="M-105.08924210435967,-34.859315645485715L-100.32231252743857,-36.15355331055323L-48.059928059209625,-24.646143158260568zM-181.57964261049483,-44.28618761194064L-199.64607617390052,-48.264151172513344L-199.64607617390052,-55.17138531569475z" style="fill:rgb(153,221,255); fill-opacity: 0.4"></path><path d="M-204.41300575082164,-53.877147650627236L-186.34657218741592,-49.89918409005453" style="fill:none;stroke:rgb(0,0,0);stroke-width:1;stroke-linecap:round"></path><path d="M-204.4130057508216,-46.96991350744584L-199.64607617390052,-48.264151172513344L-181.57964261049483,-44.28618761194064z" style="fill:rgb(153,221,255); fill-opacity: 0.4"></path><path d="M-33.04529966545354,-66.0628080033907L-33.04529966545354,14.647010113711925M-33.04529966545354,14.647010113711925L-108.01878306983481,35.00256698475276" style="fill:none;stroke:rgb(0,0,0);stroke-width:1;stroke-linecap:round"></path><path d="M-215.4781083996092,-62.39364067465345h22.130205712807694v11.065102856403913h-22.130205712807694z" style="fill:rgb(255,255,255)"></path><path d="M-105.08924210435967,-41.76654978866712L-52.826857636130725,-30.259139636374464L-100.32231252743857,-43.060787453734626zM-105.08924210435967,-41.76654978866712L-105.08924210435967,-34.859315645485715L-52.826857636130725,-30.259139636374464zM-204.4130057508216,-53.877147650627236L-186.34657218741592,-49.89918409005453L-199.64607617390052,-55.17138531569475zM-204.4130057508216,-53.877147650627236L-204.4130057508216,-46.96991350744584L-186.34657218741592,-49.89918409005453z" style="fill:rgb(153,221,255); fill-opacity: 0.4"></path><path d="M-221.4565528435189,23.17120962369394h22.130205712807694v11.065102856403913h-22.130205712807694z" style="fill:rgb(255,255,255)"></path><path d="M-181.57964261049483,-51.19342175512204L-181.57964261049483,-44.28618761194064L-199.64607617390052,-55.17138531569475zM-186.34657218741592,-42.99194994687313L-204.4130057508216,-46.96991350744584L-181.57964261049483,-44.28618761194064zM-186.34657218741592,-49.89918409005453L-181.57964261049483,-51.19342175512204L-199.64607617390052,-55.17138531569475z" style="fill:rgb(153,221,255); fill-opacity: 0.4"></path><path d="M-236.90413223816256,-32.07331799463294h22.130205712807694v11.065102856403913h-22.130205712807694z" style="fill:rgb(255,255,255)"></path><path d="M-181.57964261049483,-51.19342175512204L-181.57964261049483,-44.28618761194064M-181.57964261049483,-44.28618761194064L-186.34657218741592,-42.99194994687313M-181.57963796544956,-51.19341992863708L-181.57963796544956,-44.28618680867807M-181.57963796544956,-44.28618680867807L-186.34656754237065,-42.99194914361056M-181.57963796544956,-44.28618680867807L-147.61373583651843,-43.35305263431137" style="fill:none;stroke:rgb(0,0,0);stroke-width:1;stroke-linecap:round"></path><path d="M-204.4130057508216,-46.96991350744584L-186.34657218741592,-42.99194994687313L-186.34657218741592,-49.89918409005453z" style="fill:rgb(153,221,255); fill-opacity: 0.4"></path><path d="M-198.39637227898368,-70.96241424112037L-198.39637227898368,25.596881423560966M-181.57964261049483,-51.19342175512204L-186.34657218741592,-49.89918409005453M-181.57963796544956,-51.19341992863708L-186.34656754237065,-49.89918226356957M-181.57963796544956,-51.19341992863708L-147.61373583651843,-43.35305263431137" style="fill:none;stroke:rgb(0,0,0);stroke-width:1;stroke-linecap:round"></path><path d="M-181.57964281811107,-51.19342171441237L-181.57964281811107,-44.28618770028594L-186.34657230596673,-42.9919500594z" style="fill:rgb(255,187,187); fill-opacity: 0.4"></path><path d="M-186.34657218741592,-42.99194994687313L-181.57964261049483,-44.28618761194064L-181.57964261049483,-51.19342175512204z" style="fill:rgb(153,221,255); fill-opacity: 0.4"></path><path d="M-138.79296134754193,-80.4488210814073h22.130205712807882v11.065102856403913h-22.130205712807882z" style="fill:rgb(255,255,255)"></path><path d="M-216.46280584238943,21.61891786298826L-198.39637227898368,25.596881423560966L-198.39637227898368,-70.96241424112037z" style="fill:rgb(238,238,238); fill-opacity: 0.4"></path><path d="M-181.57964281811107,-51.19342171441237L-186.34657230596673,-42.9919500594L-186.34657230596673,-49.89918407352644z" style="fill:rgb(255,187,187); fill-opacity: 0.4"></path><path d="M-186.34657218741592,-49.89918409005453L-186.34657218741592,-42.99194994687313L-181.57964261049483,-51.19342175512204zM-48.059928059209625,-31.55337730144197L-48.059928059209625,-24.646143158260568L-100.32231252743857,-43.060787453734626z" style="fill:rgb(153,221,255); fill-opacity: 0.4"></path><path d="M-186.34657218741592,-49.89918409005453L-186.34657218741592,-42.99194994687313M-186.34656754237065,-42.99194914361056L-186.34656754237065,-49.89918226356957M-186.34656754237065,-42.99194914361056L-147.61373583651843,-43.35305263431137" style="fill:none;stroke:rgb(0,0,0);stroke-width:1;stroke-linecap:round"></path><path d="M-85.30768413368249,3.139599961419267L-160.28116753806376,23.4951568324601L-160.28116753806376,-57.21466128464252z" style="fill:rgb(238,238,238); fill-opacity: 0.4"></path><path d="M-186.34656754237065,-49.89918226356957L-147.61373583651843,-43.35305263431137" style="fill:none;stroke:rgb(0,0,0);stroke-width:1;stroke-linecap:round"></path><path d="M-52.826857636130725,-23.351905493193062L-105.08924210435967,-34.859315645485715L-48.059928059209625,-24.646143158260568zM-52.826857636130725,-30.259139636374464L-48.059928059209625,-31.55337730144197L-100.32231252743857,-43.060787453734626z" style="fill:rgb(153,221,255); fill-opacity: 0.4"></path><path d="M-216.46280584238943,-74.94037780169307L-216.46280584238943,21.61891786298826L-198.39637227898368,-70.96241424112037z" style="fill:rgb(238,238,238); fill-opacity: 0.4"></path><path d="M-105.08924210435967,-34.859315645485715L-52.826857636130725,-23.351905493193062L-52.826857636130725,-30.259139636374464z" style="fill:rgb(153,221,255); fill-opacity: 0.4"></path><path d="M-216.46280584238943,-74.94037780169307L-198.39637227898368,-70.96241424112037" style="fill:none;stroke:rgb(0,0,0);stroke-width:1;stroke-linecap:round"></path><path d="M-181.57964281811107,-44.28618770028594L-181.57964281811107,-51.19342171441237L-147.6137414462911,-43.353052966915634zM-186.34657230596673,-42.9919500594L-181.57964281811107,-44.28618770028594L-147.6137414462911,-43.353052966915634z" style="fill:rgb(255,187,187); fill-opacity: 0.4"></path><path d="M-33.04529966545354,-66.0628080033907L-108.01878306983481,-45.70725113234986" style="fill:none;stroke:rgb(0,0,0);stroke-width:1;stroke-linecap:round"></path><path d="M-181.57964281811107,-51.19342171441237L-186.34657230596673,-49.89918407352644L-147.6137414462911,-43.353052966915634zM-186.34657230596673,-49.89918407352644L-186.34657230596673,-42.9919500594L-147.6137414462911,-43.353052966915634z" style="fill:rgb(255,187,187); fill-opacity: 0.4"></path><path d="M-48.05992805920962,-31.55337730144197L-48.05992805920962,-24.646143158260568M-48.05992805920962,-24.646143158260568L-52.82685763613072,-23.35190549319306M-48.0599262413222,-31.55337693176965L-48.0599262413222,-24.64614278858825M-48.0599262413222,-24.64614278858825L-52.8268558182433,-23.35190512352074M-48.0599262413222,-24.64614278858825L-20.406037354582157,-20.43840853117211M-48.05992805920962,-31.55337730144197L-52.82685763613072,-30.259139636374456M-48.0599262413222,-31.55337693176965L-52.8268558182433,-30.259139266702142M-48.0599262413222,-31.55337693176965L-20.406037354582157,-20.43840853117211" style="fill:none;stroke:rgb(0,0,0);stroke-width:1;stroke-linecap:round"></path><path d="M-48.05992831380832,-31.553377271077153L-48.05992831380832,-24.646143256950705L-52.82685780166398,-23.35190561606477z" style="fill:rgb(255,187,187); fill-opacity: 0.4"></path><path d="M-52.826857636130725,-23.351905493193062L-48.059928059209625,-24.646143158260568L-48.059928059209625,-31.55337730144197z" style="fill:rgb(153,221,255); fill-opacity: 0.4"></path><path d="M-48.05992831380832,-31.553377271077153L-52.82685780166398,-23.35190561606477L-52.82685780166398,-30.25913963019122z" style="fill:rgb(255,187,187); fill-opacity: 0.4"></path><path d="M-52.826857636130725,-30.259139636374464L-52.826857636130725,-23.351905493193062L-48.059928059209625,-31.55337730144197z" style="fill:rgb(153,221,255); fill-opacity: 0.4"></path><path d="M-108.01878306983481,-45.70725113234987L-33.04529966545354,-66.0628080033907L-85.30768413368249,-77.57021815568335z" style="fill:rgb(238,238,238); fill-opacity: 0.4"></path><path d="M-52.82685763613072,-30.259139636374456L-52.82685763613072,-23.35190549319306M-52.8268558182433,-23.35190512352074L-52.8268558182433,-30.259139266702142M-52.8268558182433,-23.35190512352074L-20.406037354582157,-20.43840853117211" style="fill:none;stroke:rgb(0,0,0);stroke-width:1;stroke-linecap:round"></path><path d="M-108.01878306983481,35.002566984752754L-33.04529966545354,14.647010113711925L-33.04529966545354,-66.0628080033907z" style="fill:rgb(238,238,238); fill-opacity: 0.4"></path><path d="M-52.8268558182433,-30.259139266702142L-20.406037354582157,-20.43840853117211M-160.28116753806376,-57.21466128464252L-160.28116753806376,23.4951568324601M-160.28116753806376,23.4951568324601L-108.01878306983481,35.00256698475276M53.45203430244004,28.09650606655305L-5.478133427586887,15.120947884261005M-5.478133427586887,-49.163060623502616L-5.478133427586887,15.120947884261005M-5.478133427586887,15.120947884261005L-69.80684557173315,32.5864129931486" style="fill:none;stroke:rgb(0,0,0);stroke-width:1;stroke-linecap:round"></path><path d="M-108.01878306983481,35.002566984752754L-160.28116753806376,23.4951568324601L-33.04529966545354,14.647010113711925z" style="fill:rgb(238,238,238); fill-opacity: 0.4"></path><path d="M-48.05992831380832,-24.646143256950705L-48.05992831380832,-31.553377271077153L-20.40603633693832,-20.438408558017194zM-52.82685780166398,-23.35190561606477L-48.05992831380832,-24.646143256950705L-20.40603633693832,-20.438408558017194zM-48.05992831380832,-31.553377271077153L-52.82685780166398,-30.25913963019122L-20.40603633693832,-20.438408558017194zM-52.82685780166398,-30.25913963019122L-52.82685780166398,-23.35190561606477L-20.40603633693832,-20.438408558017194z" style="fill:rgb(255,187,187); fill-opacity: 0.4"></path><path d="M-160.28116753806376,-57.21466128464252L-108.01878306983481,-45.70725113234987L-85.30768413368249,-77.57021815568335z" style="fill:rgb(238,238,238); fill-opacity: 0.4"></path><path d="M-180.72249313031338,-22.27234044643042h22.130205712807882v11.065102856403913h-22.130205712807882z" style="fill:rgb(255,255,255)"></path><path d="M53.45203430244004,-36.18750244121056L-5.478133427586887,-49.163060623502616M-5.478133427586887,-49.163060623502616L-69.80684557173315,-31.697595514615013M-160.28116753806376,-57.21466128464252L-108.01878306983481,-45.70725113234986" style="fill:none;stroke:rgb(0,0,0);stroke-width:1;stroke-linecap:round"></path><path d="M53.45203430244004,28.09650606655305L-5.478133427586888,15.120947884261005L-5.478133427586888,-49.163060623502616z" style="fill:rgb(238,238,238); fill-opacity: 0.4"></path><path d="M-148.17693833024052,28.812173194279808h22.130205712807882v11.065102856403913h-22.130205712807882z" style="fill:rgb(255,255,255)"></path><path d="M-160.28116753806376,-57.21466128464252L-160.28116753806376,23.4951568324601L-108.01878306983481,-45.70725113234987zM-108.01878306983481,-45.70725113234987L-108.01878306983481,35.002566984752754L-33.04529966545354,-66.0628080033907z" style="fill:rgb(238,238,238); fill-opacity: 0.4"></path><path d="M35.059536475958836,-11.504851159937434L-23.870631254068094,-24.480409342229482M-23.870631254068094,-31.387643485410884L-23.870631254068094,-24.480409342229482M-23.870631254068094,-24.480409342229482L-28.637560830989194,-23.186171677161976" style="fill:none;stroke:rgb(0,0,0);stroke-width:1;stroke-linecap:round"></path><path d="M-35.83826863075028,-29.767919453663605h22.130205712807836v11.065102856403913h-22.130205712807836z" style="fill:rgb(255,255,255)"></path><path d="M35.059536475958836,-18.412085303118836L-23.870631254068094,-31.387643485410884M-23.870631254068094,-31.387643485410884L-28.637560830989194,-30.093405820343378" style="fill:none;stroke:rgb(0,0,0);stroke-width:1;stroke-linecap:round"></path><path d="M-5.478133427586888,-49.163060623502616L-5.478133427586888,15.120947884261005L-69.80684557173315,-31.697595514615013z" style="fill:rgb(238,238,238); fill-opacity: 0.4"></path><path d="M-23.8706312540681,-31.38764348541088L-23.8706312540681,-24.48040934222948L-28.637560830989194,-30.09340582034337zM-23.8706312540681,-24.48040934222948L-28.637560830989194,-23.186171677161973L-28.637560830989194,-30.09340582034337z" style="fill:rgb(153,221,255); fill-opacity: 0.4"></path><path d="M-160.28116753806376,23.4951568324601L-108.01878306983481,35.002566984752754L-108.01878306983481,-45.70725113234987z" style="fill:rgb(238,238,238); fill-opacity: 0.4"></path><path d="M-28.637560830989194,-30.093405820343378L-28.637560830989194,-23.186171677161976M-28.637560830989194,-23.186171677161976L30.292606899037736,-10.210613494869927M-28.637560830989194,-30.093405820343378L30.292606899037736,-17.117847638051327" style="fill:none;stroke:rgb(0,0,0);stroke-width:1;stroke-linecap:round"></path><path d="M-39.70266328537164,-38.60989880156441h22.130205712807836v11.065102856403913h-22.130205712807836z" style="fill:rgb(255,255,255)"></path><path d="M-69.80684557173315,32.5864129931486L-5.478133427586888,15.120947884261005L53.45203430244004,28.09650606655305z" style="fill:rgb(238,238,238); fill-opacity: 0.4"></path><path d="M-108.01878306983481,-45.70725113234986L-108.01878306983481,35.00256698475276" style="fill:none;stroke:rgb(0,0,0);stroke-width:1;stroke-linecap:round"></path><path d="M53.45203430244004,-36.18750244121056L53.45203430244004,28.09650606655305L-5.478133427586888,-49.163060623502616z" style="fill:rgb(238,238,238); fill-opacity: 0.4"></path><path d="M-53.64102486390602,-53.48670726913769h22.130205712807836v11.065102856403913h-22.130205712807836z" style="fill:rgb(255,255,255)"></path><path d="M35.05953647595883,-11.504851159937429L-23.8706312540681,-24.48040934222948L-23.8706312540681,-31.38764348541088zM-28.637560830989194,-23.186171677161973L-23.8706312540681,-24.48040934222948L35.05953647595883,-11.504851159937429z" style="fill:rgb(153,221,255); fill-opacity: 0.4"></path><path d="M53.45203430244004,-36.18750244121056L53.45203430244004,28.09650606655305M53.45203430244004,28.09650606655305L-10.876677841706218,45.56197117544065" style="fill:none;stroke:rgb(0,0,0);stroke-width:1;stroke-linecap:round"></path><path d="M-5.478133427586888,15.120947884261005L-69.80684557173315,32.5864129931486L-69.80684557173315,-31.697595514615013z" style="fill:rgb(238,238,238); fill-opacity: 0.4"></path><path d="M-28.637560830989194,-30.09340582034337L30.292606899037736,-17.11784763805132L-23.8706312540681,-31.38764348541088zM-28.637560830989194,-30.09340582034337L-28.637560830989194,-23.186171677161973L30.292606899037736,-17.11784763805132zM35.05953647595883,-18.412085303118825L35.05953647595883,-11.504851159937429L-23.8706312540681,-31.38764348541088z" style="fill:rgb(153,221,255); fill-opacity: 0.4"></path><path d="M53.45203430244004,-36.18750244121056L-10.876677841706218,-18.722037332322966" style="fill:none;stroke:rgb(0,0,0);stroke-width:1;stroke-linecap:round"></path><path d="M30.292606899037736,-10.210613494869923L-28.637560830989194,-23.186171677161973L35.05953647595883,-11.504851159937429zM30.292606899037736,-17.11784763805132L35.05953647595883,-18.412085303118825L-23.8706312540681,-31.38764348541088z" style="fill:rgb(153,221,255); fill-opacity: 0.4"></path><path d="M-69.80684557173315,-31.697595514615013L-69.80684557173315,32.5864129931486M-69.80684557173315,32.5864129931486L-10.876677841706218,45.56197117544065" style="fill:none;stroke:rgb(0,0,0);stroke-width:1;stroke-linecap:round"></path><path d="M-28.637560830989194,-23.186171677161973L30.292606899037736,-10.210613494869923L30.292606899037736,-17.11784763805132z" style="fill:rgb(153,221,255); fill-opacity: 0.4"></path><path d="M-10.876677841706218,-18.722037332322962L53.45203430244004,-36.18750244121056L-5.478133427586888,-49.163060623502616z" style="fill:rgb(238,238,238); fill-opacity: 0.4"></path><path d="M-90.24817147326601,-4.968179324614838h22.130205712807786v11.065102856403914h-22.130205712807786z" style="fill:rgb(255,255,255)"></path><path d="M-69.80684557173315,-31.697595514615013L-10.876677841706218,-18.722037332322962L-5.478133427586888,-49.163060623502616zM-10.876677841706218,45.56197117544065L53.45203430244004,28.09650606655305L53.45203430244004,-36.18750244121056zM-10.876677841706218,45.56197117544065L-69.80684557173315,32.5864129931486L53.45203430244004,28.09650606655305z" style="fill:rgb(238,238,238); fill-opacity: 0.4"></path><path d="M35.059536475958836,-18.412085303118836L35.059536475958836,-11.504851159937434M35.059536475958836,-11.504851159937434L30.292606899037736,-10.210613494869927M35.059535174075506,-18.412085078898244L35.059535174075506,-11.504850935716844M35.059535174075506,-11.504850935716844L30.292606303316823,-10.210613462374843M35.059535174075506,-11.504850935716844L63.644174987726046,-9.81435518277823M35.059536475958836,-18.412085303118836L30.292606899037736,-17.117847638051327M35.059535174075506,-18.412085078898244L30.292606303316823,-17.117847605556243M35.059535174075506,-18.412085078898244L63.644174987726046,-9.81435518277823" style="fill:none;stroke:rgb(0,0,0);stroke-width:1;stroke-linecap:round"></path><path d="M35.05953607393736,-18.412085305214344L35.05953607393736,-11.504851291087897L30.292606586081707,-10.21061365020196z" style="fill:rgb(255,187,187); fill-opacity: 0.4"></path><path d="M30.292606899037736,-10.210613494869923L35.05953647595883,-11.504851159937429L35.05953647595883,-18.412085303118825z" style="fill:rgb(153,221,255); fill-opacity: 0.4"></path><path d="M-69.80684557173315,-31.697595514615013L-10.876677841706218,-18.722037332322966" style="fill:none;stroke:rgb(0,0,0);stroke-width:1;stroke-linecap:round"></path><path d="M35.05953607393736,-18.412085305214344L30.292606586081707,-10.21061365020196L30.292606586081707,-17.11784766432841z" style="fill:rgb(255,187,187); fill-opacity: 0.4"></path><path d="M30.292606899037736,-17.11784763805132L30.292606899037736,-10.210613494869923L35.05953647595883,-18.412085303118825z" style="fill:rgb(153,221,255); fill-opacity: 0.4"></path><path d="M30.292606303316823,-10.210613462374843L30.292606303316823,-17.117847605556243M30.292606303316823,-10.210613462374843L63.644174987726046,-9.81435518277823M30.292606899037736,-17.117847638051327L30.292606899037736,-10.210613494869927M144.57584675822196,40.99778884663095L80.91481355668134,26.98056350908076M80.91481355668134,-17.641191132259376L80.91481355668134,26.98056350908076M80.91481355668134,26.98056350908076L27.43964817699521,41.49925359319261M30.292606303316823,-17.117847605556243L63.644174987726046,-9.81435518277823" style="fill:none;stroke:rgb(0,0,0);stroke-width:1;stroke-linecap:round"></path><path d="M35.05953607393736,-11.504851291087897L35.05953607393736,-18.412085305214344L63.644172295207795,-9.814355322284154zM30.292606586081707,-10.21061365020196L35.05953607393736,-11.504851291087897L63.644172295207795,-9.814355322284154zM35.05953607393736,-18.412085305214344L30.292606586081707,-17.11784766432841L63.644172295207795,-9.814355322284154z" style="fill:rgb(255,187,187); fill-opacity: 0.4"></path><path d="M-54.36872518971695,38.63750136526009h22.130205712807836v11.065102856403913h-22.130205712807836z" style="fill:rgb(255,255,255)"></path><path d="M-69.80684557173315,-31.697595514615013L-69.80684557173315,32.5864129931486L-10.876677841706218,-18.722037332322962z" style="fill:rgb(238,238,238); fill-opacity: 0.4"></path><path d="M30.292606586081707,-17.11784766432841L30.292606586081707,-10.21061365020196L63.644172295207795,-9.814355322284154z" style="fill:rgb(255,187,187); fill-opacity: 0.4"></path><path d="M144.57584675822196,-3.6239657947091852L80.91481355668134,-17.641191132259376M80.91481355668134,-17.641191132259376L27.43964817699521,-3.1225010481475195" style="fill:none;stroke:rgb(0,0,0);stroke-width:1;stroke-linecap:round"></path><path d="M-10.876677841706218,-18.722037332322962L-10.876677841706218,45.56197117544065L53.45203430244004,-36.18750244121056zM-69.80684557173315,32.5864129931486L-10.876677841706218,45.56197117544065L-10.876677841706218,-18.722037332322962zM144.57584675822196,40.99778884663094L80.91481355668135,26.980563509080753L80.91481355668135,-17.641191132259376zM80.91481355668135,-17.641191132259376L80.91481355668135,26.980563509080753L27.43964817699523,-3.122501048147522z" style="fill:rgb(238,238,238); fill-opacity: 0.4"></path><path d="M-10.876677841706218,-18.722037332322966L-10.876677841706218,45.56197117544065" style="fill:none;stroke:rgb(0,0,0);stroke-width:1;stroke-linecap:round"></path><path d="M38.178694586682326,-23.438226817376492h22.130205712807786v11.065102856403913h-22.130205712807786z" style="fill:rgb(255,255,255)"></path><path d="M27.43964817699523,41.49925359319261L80.91481355668135,26.980563509080753L144.57584675822196,40.99778884663094zM80.91481355668135,26.980563509080753L27.43964817699523,41.49925359319261L27.43964817699523,-3.122501048147522z" style="fill:rgb(238,238,238); fill-opacity: 0.4"></path><path d="M104.71605724322005,47.67423805873371L41.05502404167942,33.657012721183506M41.05502404167942,26.749778578002108L41.05502404167942,33.657012721183506M41.05502404167942,33.657012721183506L36.288094464758316,34.95125038625101" style="fill:none;stroke:rgb(0,0,0);stroke-width:1;stroke-linecap:round"></path><path d="M144.57584675822196,-3.623965794709188L144.57584675822196,40.99778884663094L80.91481355668135,-17.641191132259376z" style="fill:rgb(238,238,238); fill-opacity: 0.4"></path><path d="M29.087385749087247,28.36950240807944h22.130205712807836v11.065102856403913h-22.130205712807836z" style="fill:rgb(255,255,255)"></path><path d="M104.71605724322005,40.7670039155523L41.05502404167942,26.749778578002108M41.05502404167942,26.749778578002108L36.288094464758316,28.044016243069613" style="fill:none;stroke:rgb(0,0,0);stroke-width:1;stroke-linecap:round"></path><path d="M41.05502404167942,26.749778578002108L41.05502404167942,33.657012721183506L36.28809446475832,28.044016243069613zM41.05502404167942,33.657012721183506L36.28809446475832,34.95125038625101L36.28809446475832,28.044016243069613z" style="fill:rgb(153,221,255); fill-opacity: 0.4"></path><path d="M36.288094464758316,28.044016243069613L36.288094464758316,34.95125038625101M36.288094464758316,34.95125038625101L99.94912766629895,48.96847572380121M36.288094464758316,28.044016243069613L99.94912766629895,42.061241580619814" style="fill:none;stroke:rgb(0,0,0);stroke-width:1;stroke-linecap:round"></path><path d="M25.222991094465883,19.52752306017864h22.130205712807836v11.065102856403913h-22.130205712807836z" style="fill:rgb(255,255,255)"></path><path d="M144.57584675822196,-3.6239657947091852L144.57584675822196,40.99778884663095M144.57584675822196,40.99778884663095L91.10068137853584,55.51647893074281M27.43964817699521,-3.1225010481475195L27.43964817699521,41.49925359319261M27.43964817699521,41.49925359319261L91.10068137853584,55.51647893074281" style="fill:none;stroke:rgb(0,0,0);stroke-width:1;stroke-linecap:round"></path><path d="M104.71605724322,47.67423805873369L41.05502404167942,33.657012721183506L41.05502404167942,26.749778578002108z" style="fill:rgb(153,221,255); fill-opacity: 0.4"></path><path d="M6.998323145132158,13.77578752217996h22.130205712807836v11.065102856403913h-22.130205712807836z" style="fill:rgb(255,255,255)"></path><path d="M36.28809446475832,34.95125038625101L41.05502404167942,33.657012721183506L104.71605724322,47.67423805873369z" style="fill:rgb(153,221,255); fill-opacity: 0.4"></path><path d="M144.57584675822196,-3.6239657947091852L91.10068137853584,10.89472428940267" style="fill:none;stroke:rgb(0,0,0);stroke-width:1;stroke-linecap:round"></path><path d="M91.10068137853582,10.894724289402669L144.57584675822196,-3.623965794709188L80.91481355668135,-17.641191132259376z" style="fill:rgb(238,238,238); fill-opacity: 0.4"></path><path d="M36.28809446475832,28.044016243069613L99.94912766629892,42.0612415806198L41.05502404167942,26.749778578002108z" style="fill:rgb(153,221,255); fill-opacity: 0.4"></path><path d="M27.43964817699523,-3.122501048147522L91.10068137853582,10.894724289402669L80.91481355668135,-17.641191132259376z" style="fill:rgb(238,238,238); fill-opacity: 0.4"></path><path d="M36.28809446475832,28.044016243069613L36.28809446475832,34.95125038625101L99.94912766629892,42.0612415806198z" style="fill:rgb(153,221,255); fill-opacity: 0.4"></path><path d="M27.43964817699521,-3.1225010481475195L91.10068137853584,10.89472428940267" style="fill:none;stroke:rgb(0,0,0);stroke-width:1;stroke-linecap:round"></path><path d="M91.10068137853582,55.51647893074281L27.43964817699523,41.49925359319261L144.57584675822196,40.99778884663094zM91.10068137853582,55.51647893074281L144.57584675822196,40.99778884663094L144.57584675822196,-3.623965794709188z" style="fill:rgb(238,238,238); fill-opacity: 0.4"></path><path d="M104.71605724322,40.7670039155523L104.71605724322,47.67423805873369L41.05502404167942,26.749778578002108z" style="fill:rgb(153,221,255); fill-opacity: 0.4"></path><path d="M27.43964817699523,-3.122501048147522L27.43964817699523,41.49925359319261L91.10068137853582,10.894724289402669z" style="fill:rgb(238,238,238); fill-opacity: 0.4"></path><path d="M99.94912766629892,48.968475723801205L36.28809446475832,34.95125038625101L104.71605724322,47.67423805873369zM99.94912766629892,42.0612415806198L104.71605724322,40.7670039155523L41.05502404167942,26.749778578002108z" style="fill:rgb(153,221,255); fill-opacity: 0.4"></path><path d="M245.445824712494,60.32357967723238L177.0539260394397,45.26468718442404M177.0539260394397,6.816164238850331L177.0539260394397,45.26468718442404M177.0539260394397,45.26468718442404L124.40171103390082,59.559943430566186" style="fill:none;stroke:rgb(0,0,0);stroke-width:1;stroke-linecap:round"></path><path d="M36.28809446475832,34.95125038625101L99.94912766629892,48.968475723801205L99.94912766629892,42.0612415806198z" style="fill:rgb(153,221,255); fill-opacity: 0.4"></path><path d="M45.243203080348096,48.071176383566396h22.130205712807786v11.065102856403913h-22.130205712807786z" style="fill:rgb(255,255,255)"></path><path d="M245.445824712494,21.875056731658674L177.0539260394397,6.816164238850331M177.0539260394397,6.816164238850331L124.40171103390082,21.11142048499248" style="fill:none;stroke:rgb(0,0,0);stroke-width:1;stroke-linecap:round"></path><path d="M27.43964817699523,41.49925359319261L91.10068137853582,55.51647893074281L91.10068137853582,10.894724289402669z" style="fill:rgb(238,238,238); fill-opacity: 0.4"></path><path d="M104.71605724322005,40.7670039155523L104.71605724322005,47.67423805873371M104.71605724322005,47.67423805873371L99.94912766629895,48.96847572380121M104.71605990479748,40.76700484045622L104.71605990479748,47.674237960415226M104.71605990479748,47.674237960415226L99.9491303278764,48.968475625482725M104.71605990479748,47.674237960415226L135.46076971652678,62.48649903152878M104.71605724322005,40.7670039155523L99.94912766629895,42.061241580619814M104.71605990479748,40.76700484045622L99.9491303278764,42.06124250552373M104.71605990479748,40.76700484045622L135.46076971652678,62.48649903152878" style="fill:none;stroke:rgb(0,0,0);stroke-width:1;stroke-linecap:round"></path><path d="M91.10068137853582,10.894724289402669L91.10068137853582,55.51647893074281L144.57584675822196,-3.623965794709188z" style="fill:rgb(238,238,238); fill-opacity: 0.4"></path><path d="M99.94912766629892,48.968475723801205L104.71605724322,47.67423805873369L104.71605724322,40.7670039155523z" style="fill:rgb(153,221,255); fill-opacity: 0.4"></path><path d="M104.71605775710852,40.767004115126724L104.71605775710852,47.67423812925317L99.94912826925287,48.9684757701391z" style="fill:rgb(255,187,187); fill-opacity: 0.4"></path><path d="M99.94912766629892,42.0612415806198L99.94912766629892,48.968475723801205L104.71605724322,40.7670039155523z" style="fill:rgb(153,221,255); fill-opacity: 0.4"></path><path d="M104.71605775710852,40.767004115126724L99.94912826925287,48.9684757701391L99.94912826925287,42.061241756012656z" style="fill:rgb(255,187,187); fill-opacity: 0.4"></path><path d="M99.94912766629895,42.061241580619814L99.94912766629895,48.96847572380121M99.9491303278764,48.968475625482725L99.9491303278764,42.06124250552373M99.9491303278764,48.968475625482725L135.46076971652678,62.48649903152878M99.9491303278764,42.06124250552373L135.46076971652678,62.48649903152878" style="fill:none;stroke:rgb(0,0,0);stroke-width:1;stroke-linecap:round"></path><path d="M245.445824712494,60.32357967723238L177.0539260394397,45.26468718442404L177.0539260394397,6.816164238850334z" style="fill:rgb(238,238,238); fill-opacity: 0.4"></path><path d="M104.71605775710852,47.67423812925317L104.71605775710852,40.767004115126724L135.46076839293193,62.48649852892731z" style="fill:rgb(255,187,187); fill-opacity: 0.4"></path><path d="M177.0539260394397,6.816164238850334L177.0539260394397,45.26468718442404L124.40171103390082,21.11142048499248z" style="fill:rgb(238,238,238); fill-opacity: 0.4"></path><path d="M99.94912826925287,48.9684757701391L104.71605775710852,47.67423812925317L135.46076839293193,62.48649852892731zM104.71605775710852,40.767004115126724L99.94912826925287,42.061241756012656L135.46076839293193,62.48649852892731z" style="fill:rgb(255,187,187); fill-opacity: 0.4"></path><path d="M91.10068137853584,10.89472428940267L91.10068137853584,55.51647893074281" style="fill:none;stroke:rgb(0,0,0);stroke-width:1;stroke-linecap:round"></path><path d="M99.94912826925287,42.061241756012656L99.94912826925287,48.9684757701391L135.46076839293193,62.48649852892731z" style="fill:rgb(255,187,187); fill-opacity: 0.4"></path><path d="M215.7465393134333,59.540158036057605L147.354640640379,44.481265543249265M147.354640640379,39.76634473332018L147.354640640379,44.481265543249265M147.354640640379,44.481265543249265L144.10070498454502,45.36472019000461" style="fill:none;stroke:rgb(0,0,0);stroke-width:1;stroke-linecap:round"></path><path d="M136.14349839242038,38.98836354128562h22.130205712807882v11.065102856403913h-22.130205712807882zM134.72928134060425,0.9074126282349031h22.130205712807882v11.065102856403914h-22.130205712807882z" style="fill:rgb(255,255,255)"></path><path d="M215.7465393134333,54.82523722612852L147.354640640379,39.76634473332018M147.354640640379,39.76634473332018L144.10070498454502,40.64979938007553" style="fill:none;stroke:rgb(0,0,0);stroke-width:1;stroke-linecap:round"></path><path d="M147.354640640379,39.76634473332018L147.354640640379,44.481265543249265L144.10070498454502,40.649799380075535zM147.354640640379,44.481265543249265L144.10070498454502,45.36472019000462L144.10070498454502,40.649799380075535z" style="fill:rgb(153,221,255); fill-opacity: 0.4"></path><path d="M144.10070498454502,40.64979938007553L144.10070498454502,45.36472019000461M144.10070498454502,45.36472019000461L212.49260365759935,60.42361268281295" style="fill:none;stroke:rgb(0,0,0);stroke-width:1;stroke-linecap:round"></path><path d="M124.40171103390082,59.559943430566186L177.0539260394397,45.26468718442404L245.445824712494,60.32357967723238z" style="fill:rgb(238,238,238); fill-opacity: 0.4"></path><path d="M144.10070498454502,40.64979938007553L212.49260365759935,55.70869187288387" style="fill:none;stroke:rgb(0,0,0);stroke-width:1;stroke-linecap:round"></path><path d="M133.03560068318274,31.0371493330044h22.130205712807882v11.065102856403913h-22.130205712807882z" style="fill:rgb(255,255,255)"></path><path d="M177.0539260394397,45.26468718442404L124.40171103390082,59.559943430566186L124.40171103390082,21.11142048499248zM245.445824712494,21.875056731658667L245.445824712494,60.32357967723238L177.0539260394397,6.816164238850334z" style="fill:rgb(238,238,238); fill-opacity: 0.4"></path><path d="M215.7465393134333,59.540158036057605L147.354640640379,44.481265543249265L147.354640640379,39.76634473332018zM144.10070498454502,45.36472019000462L147.354640640379,44.481265543249265L215.7465393134333,59.540158036057605z" style="fill:rgb(153,221,255); fill-opacity: 0.4"></path><path d="M124.40171103390082,21.11142048499248L124.40171103390082,59.559943430566186M124.40171103390082,59.559943430566186L192.79360970695512,74.61883592337453" style="fill:none;stroke:rgb(0,0,0);stroke-width:1;stroke-linecap:round"></path><path d="M144.10070498454502,40.649799380075535L212.49260365759935,55.70869187288387L147.354640640379,39.76634473332018zM144.10070498454502,40.649799380075535L144.10070498454502,45.36472019000462L212.49260365759935,55.70869187288387z" style="fill:rgb(153,221,255); fill-opacity: 0.4"></path><path d="M245.445824712494,21.875056731658674L245.445824712494,60.32357967723238M245.445824712494,60.32357967723238L192.79360970695512,74.61883592337453" style="fill:none;stroke:rgb(0,0,0);stroke-width:1;stroke-linecap:round"></path><path d="M103.96038517259383,34.92309298229096h22.130205712807882v11.065102856403913h-22.130205712807882z" style="fill:rgb(255,255,255)"></path><path d="M124.40171103390082,21.11142048499248L192.79360970695512,36.17031297780082" style="fill:none;stroke:rgb(0,0,0);stroke-width:1;stroke-linecap:round"></path><path d="M124.40171103390082,21.11142048499248L192.79360970695512,36.17031297780081L177.0539260394397,6.816164238850334zM192.79360970695512,36.17031297780081L245.445824712494,21.875056731658667L177.0539260394397,6.816164238850334z" style="fill:rgb(238,238,238); fill-opacity: 0.4"></path><path d="M245.445824712494,21.875056731658674L192.79360970695512,36.17031297780082" style="fill:none;stroke:rgb(0,0,0);stroke-width:1;stroke-linecap:round"></path><path d="M215.7465393134333,54.82523722612852L215.7465393134333,59.540158036057605L147.354640640379,39.76634473332018zM212.49260365759935,60.42361268281295L144.10070498454502,45.36472019000462L215.7465393134333,59.540158036057605zM212.49260365759935,55.70869187288387L215.7465393134333,54.82523722612852L147.354640640379,39.76634473332018z" style="fill:rgb(153,221,255); fill-opacity: 0.4"></path><path d="M192.79360970695512,74.61883592337453L124.40171103390082,59.559943430566186L245.445824712494,60.32357967723238z" style="fill:rgb(238,238,238); fill-opacity: 0.4"></path><path d="M144.10070498454502,45.36472019000462L212.49260365759935,60.42361268281295L212.49260365759935,55.70869187288387z" style="fill:rgb(153,221,255); fill-opacity: 0.4"></path><path d="M192.79360970695512,74.61883592337453L245.445824712494,60.32357967723238L245.445824712494,21.875056731658667zM124.40171103390082,21.11142048499248L124.40171103390082,59.559943430566186L192.79360970695512,36.17031297780081z" style="fill:rgb(238,238,238); fill-opacity: 0.4"></path><path d="M144.5706987594766,66.65269857993671h22.130205712807882v11.065102856403913h-22.130205712807882z" style="fill:rgb(255,255,255)"></path><path d="M346.2915850366588,78.39221939850825L277.8996863636045,63.33332690569991M277.8996863636045,33.58548911384329L277.8996863636045,63.33332690569991M277.8996863636045,63.33332690569991L226.11885882424735,77.3919984779127M215.7465393134333,54.82523722612852L215.7465393134333,59.540158036057605M215.7465393134333,59.540158036057605L212.49260365759935,60.42361268281295M215.74653961900037,54.82523729868251L215.74653961900037,59.540158108611585M215.74653961900037,59.540158108611585L212.49260431624762,60.423612659504194M215.74653961900037,59.540158108611585L247.09187586865139,72.47421348170921M215.7465393134333,54.82523722612852L212.49260365759935,55.70869187288387M215.74653961900037,54.82523729868251L212.49260431624762,55.708691849575104M215.74653961900037,54.82523729868251L247.09187586865139,72.47421348170921" style="fill:none;stroke:rgb(0,0,0);stroke-width:1;stroke-linecap:round"></path><path d="M212.49260365759935,60.42361268281295L215.7465393134333,59.540158036057605L215.7465393134333,54.82523722612852z" style="fill:rgb(153,221,255); fill-opacity: 0.4"></path><path d="M215.74654075839163,54.8252376012905L215.74654075839163,59.54015832609751L212.4926051613035,60.42361295690318z" style="fill:rgb(255,187,187); fill-opacity: 0.4"></path><path d="M212.49260365759935,55.70869187288387L212.49260365759935,60.42361268281295L215.7465393134333,54.82523722612852z" style="fill:rgb(153,221,255); fill-opacity: 0.4"></path><path d="M215.74654075839163,54.8252376012905L212.4926051613035,60.42361295690318L212.4926051613035,55.70869223209616z" style="fill:rgb(255,187,187); fill-opacity: 0.4"></path><path d="M212.49260431624762,60.423612659504194L212.49260431624762,55.708691849575104M212.49260431624762,60.423612659504194L247.09187586865139,72.47421348170921M212.49260365759935,55.70869187288387L212.49260365759935,60.42361268281295M346.2915850366588,48.64438160665162L277.8996863636045,33.58548911384329M277.8996863636045,33.58548911384329L226.11885882424735,47.64416068605607M212.49260431624762,55.708691849575104L247.09187586865139,72.47421348170921" style="fill:none;stroke:rgb(0,0,0);stroke-width:1;stroke-linecap:round"></path><path d="M124.40171103390082,59.559943430566186L192.79360970695512,74.61883592337453L192.79360970695512,36.17031297780081zM192.79360970695512,36.17031297780081L192.79360970695512,74.61883592337453L245.445824712494,21.875056731658667z" style="fill:rgb(238,238,238); fill-opacity: 0.4"></path><path d="M215.74654075839163,59.54015832609751L215.74654075839163,54.8252376012905L247.09187708931668,72.47421346801823zM212.4926051613035,60.42361295690318L215.74654075839163,59.54015832609751L247.09187708931668,72.47421346801823zM215.74654075839163,54.8252376012905L212.4926051613035,55.70869223209616L247.09187708931668,72.47421346801823zM212.4926051613035,55.70869223209616L212.4926051613035,60.42361295690318L247.09187708931668,72.47421346801823z" style="fill:rgb(255,187,187); fill-opacity: 0.4"></path><path d="M346.29158503665883,78.39221939850825L277.8996863636045,63.33332690569991L277.8996863636045,33.58548911384329zM277.8996863636045,33.58548911384329L277.8996863636045,63.33332690569991L226.11885882424735,47.64416068605607z" style="fill:rgb(238,238,238); fill-opacity: 0.4"></path><path d="M192.79360970695512,36.17031297780082L192.79360970695512,74.61883592337453" style="fill:none;stroke:rgb(0,0,0);stroke-width:1;stroke-linecap:round"></path><path d="M236.01073539786,27.55844497389355h22.130205712807694v11.065102856403913h-22.130205712807694z" style="fill:rgb(255,255,255)"></path><path d="M226.11885882424735,77.3919984779127L277.8996863636045,63.33332690569991L346.29158503665883,78.39221939850825zM277.8996863636045,63.33332690569991L226.11885882424735,77.3919984779127L226.11885882424735,47.64416068605607zM346.29158503665883,48.64438160665162L346.29158503665883,78.39221939850825L277.8996863636045,33.58548911384329z" style="fill:rgb(238,238,238); fill-opacity: 0.4"></path><path d="M226.11885882424735,47.64416068605607L226.11885882424735,77.3919984779127M226.11885882424735,77.3919984779127L294.51075749730165,92.45089097072102M346.2915850366588,48.64438160665162L346.2915850366588,78.39221939850825M346.2915850366588,78.39221939850825L294.51075749730165,92.45089097072102" style="fill:none;stroke:rgb(0,0,0);stroke-width:1;stroke-linecap:round"></path><path d="M205.67753251207023,57.10549072890882h22.130205712807694v11.065102856403913h-22.130205712807694z" style="fill:rgb(255,255,255)"></path><path d="M226.11885882424735,47.64416068605607L294.51075749730165,62.7030531788644" style="fill:none;stroke:rgb(0,0,0);stroke-width:1;stroke-linecap:round"></path><path d="M226.11885882424735,47.64416068605607L294.51075749730165,62.7030531788644L277.8996863636045,33.58548911384329zM294.51075749730165,62.7030531788644L346.29158503665883,48.64438160665162L277.8996863636045,33.58548911384329z" style="fill:rgb(238,238,238); fill-opacity: 0.4"></path><path d="M346.2915850366588,48.64438160665162L294.51075749730165,62.7030531788644" style="fill:none;stroke:rgb(0,0,0);stroke-width:1;stroke-linecap:round"></path><path d="M294.51075749730165,92.45089097072102L226.11885882424735,77.3919984779127L346.29158503665883,78.39221939850825zM226.11885882424735,47.64416068605607L226.11885882424735,77.3919984779127L294.51075749730165,62.7030531788644zM294.51075749730165,92.45089097072102L346.29158503665883,78.39221939850825L346.29158503665883,48.64438160665162z" style="fill:rgb(238,238,238); fill-opacity: 0.4"></path><path d="M246.28784609895294,84.48475394206565h22.130205712807694v11.065102856403913h-22.130205712807694z" style="fill:rgb(255,255,255)"></path><path d="M375.52121257306425,177.17128897178148L364.12256227145645,174.66147344120816M364.12256227145645,-19.359780129771842L364.12256227145645,174.66147344120816M364.12256227145645,174.66147344120816L353.85753832120866,177.44846251139526M327.74497549823144,72.16463421610626L346.38238854503675,76.26831908026813" style="fill:none;stroke:rgb(0,0,0);stroke-width:1;stroke-linecap:round"></path><path d="M226.11885882424735,77.3919984779127L294.51075749730165,92.45089097072102L294.51075749730165,62.7030531788644zM294.51075749730165,62.7030531788644L294.51075749730165,92.45089097072102L346.29158503665883,48.64438160665162zM353.8575383212088,177.44846251139526L364.12256227145656,174.6614734412082L375.52121257306425,177.17128897178148z" style="fill:rgb(238,238,238); fill-opacity: 0.4"></path><path d="M344.2480499933213,178.33484910848114h22.130205712807694v11.065102856404001h-22.130205712807694z" style="fill:rgb(255,255,255)"></path><path d="M375.52121257306425,-16.849964599198525L375.52121257306425,177.17128897178148M375.52121257306425,177.17128897178148L365.2561886228165,179.95827804196858M353.85753832120866,-16.572791059584738L353.85753832120866,177.44846251139526M353.85753832120866,177.44846251139526L365.2561886228165,179.95827804196858" style="fill:none;stroke:rgb(0,0,0);stroke-width:1;stroke-linecap:round"></path><path d="M365.2561886228165,179.9582780419686L353.8575383212088,177.44846251139526L375.52121257306425,177.17128897178148zM375.52121257306425,177.17128897178148L364.12256227145656,174.6614734412082L364.12256227145656,-19.35978012977184z" style="fill:rgb(238,238,238); fill-opacity: 0.4"></path><path d="M294.51075749730165,62.7030531788644L294.51075749730165,92.45089097072102M365.2561886228165,-14.062975529011418L365.2561886228165,179.95827804196858" style="fill:none;stroke:rgb(0,0,0);stroke-width:1;stroke-linecap:round"></path><path d="M342.86126835287433,78.88207781699582L346.38238854503686,81.6329513229621L357.3455726902165,78.68225135330452zM348.5585604172523,71.33740228571345L344.20621667282137,72.51907848093883L357.3455726902165,78.68225135330452z" style="fill:rgb(0,0,0)"></path><path d="M364.12256227145656,174.6614734412082L353.8575383212088,177.44846251139526L353.8575383212088,-16.572791059584734z" style="fill:rgb(238,238,238); fill-opacity: 0.4"></path><path d="M344.20621667282137,72.51907848093883L342.86126835287433,78.88207781699582L357.3455726902165,78.68225135330452z" style="fill:rgb(0,0,0)"></path><path d="M365.2561886228165,179.9582780419686L375.52121257306425,177.17128897178148L375.52121257306425,-16.849964599198522zM353.8575383212088,177.44846251139526L365.2561886228165,179.9582780419686L365.2561886228165,-14.062975529011416zM364.12256227145656,-19.35978012977184L364.12256227145656,174.6614734412082L353.8575383212088,-16.572791059584734z" style="fill:rgb(238,238,238); fill-opacity: 0.4"></path><path d="M419.8094152788893,186.9229013145674L408.4107649772815,184.41308578399412M408.4107649772815,-9.608167786985897L408.4107649772815,184.41308578399412M408.4107649772815,184.41308578399412L398.1457410270337,187.20007485418122" style="fill:none;stroke:rgb(0,0,0);stroke-width:1;stroke-linecap:round"></path><path d="M375.52121257306425,-16.849964599198522L375.52121257306425,177.17128897178148L364.12256227145656,-19.35978012977184z" style="fill:rgb(238,238,238); fill-opacity: 0.4"></path><path d="M372.03317820405647,81.91624655889221L390.6705912508618,86.01993142305408" style="fill:none;stroke:rgb(0,0,0);stroke-width:1;stroke-linecap:round"></path><path d="M398.1457410270337,187.20007485418122L408.4107649772815,184.41308578399415L419.8094152788893,186.9229013145674zM353.8575383212088,-16.572791059584734L353.8575383212088,177.44846251139526L365.2561886228165,-14.062975529011416z" style="fill:rgb(238,238,238); fill-opacity: 0.4"></path><path d="M388.53625269914625,188.08646145126707h22.130205712807694v11.065102856404001h-22.130205712807694z" style="fill:rgb(255,255,255)"></path><path d="M419.8094152788893,-7.0983522564125785L419.8094152788893,186.9229013145674M419.8094152788893,186.9229013145674L409.5443913286415,189.70989038475452M375.52121257306425,-16.849964599198525L364.12256227145645,-19.359780129771842M364.12256227145645,-19.359780129771842L353.85753832120866,-16.572791059584738M398.1457410270337,-6.821178716798792L398.1457410270337,187.20007485418122M398.1457410270337,187.20007485418122L409.5443913286415,189.70989038475452" style="fill:none;stroke:rgb(0,0,0);stroke-width:1;stroke-linecap:round"></path><path d="M365.2561886228165,-14.062975529011416L365.2561886228165,179.9582780419686L375.52121257306425,-16.849964599198522zM409.5443913286415,189.70989038475457L398.1457410270337,187.20007485418122L419.8094152788893,186.9229013145674zM419.8094152788893,186.9229013145674L408.4107649772815,184.41308578399415L408.4107649772815,-9.608167786985895z" style="fill:rgb(238,238,238); fill-opacity: 0.4"></path><path d="M375.52121257306425,-16.849964599198525L365.2561886228165,-14.062975529011418" style="fill:none;stroke:rgb(0,0,0);stroke-width:1;stroke-linecap:round"></path><path d="M365.2561886228165,-14.062975529011416L375.52121257306425,-16.849964599198522L364.12256227145656,-19.35978012977184zM353.8575383212088,-16.572791059584734L365.2561886228165,-14.062975529011416L364.12256227145656,-19.35978012977184z" style="fill:rgb(238,238,238); fill-opacity: 0.4"></path><path d="M409.5443913286415,-4.311363186225473L409.5443913286415,189.70989038475452M353.85753832120866,-16.572791059584738L365.2561886228165,-14.062975529011418" style="fill:none;stroke:rgb(0,0,0);stroke-width:1;stroke-linecap:round"></path><path d="M387.14947105869936,88.63369015978176L390.6705912508619,91.38456366574805L401.6337753960415,88.43386369609048zM392.8467631230773,81.0890146284994L388.4944193786464,82.27069082372476L401.6337753960415,88.43386369609048z" style="fill:rgb(0,0,0)"></path><path d="M408.4107649772815,184.41308578399415L398.1457410270337,187.20007485418122L398.1457410270337,-6.821178716798789z" style="fill:rgb(238,238,238); fill-opacity: 0.4"></path><path d="M388.4944193786464,82.27069082372476L387.14947105869936,88.63369015978176L401.6337753960415,88.43386369609048z" style="fill:rgb(0,0,0)"></path><path d="M409.5443913286415,189.70989038475457L419.8094152788893,186.9229013145674L419.8094152788893,-7.098352256412577zM398.1457410270337,187.20007485418122L409.5443913286415,189.70989038475457L409.5443913286415,-4.3113631862254715zM408.4107649772815,-9.608167786985895L408.4107649772815,184.41308578399415L398.1457410270337,-6.821178716798789zM419.8094152788893,-7.098352256412577L419.8094152788893,186.9229013145674L408.4107649772815,-9.608167786985895z" style="fill:rgb(238,238,238); fill-opacity: 0.4"></path><path d="M416.3213809098814,91.66785890167813L434.95879395668675,95.77154376584M464.09761798471425,175.40839142617784L452.69896768310645,172.89857589560455M452.69896768310645,21.409566786975535L452.69896768310645,172.89857589560455M452.69896768310645,172.89857589560455L442.43394373285867,175.68556496579166" style="fill:none;stroke:rgb(0,0,0);stroke-width:1;stroke-linecap:round"></path><path d="M398.1457410270337,-6.821178716798789L398.1457410270337,187.20007485418122L409.5443913286415,-4.3113631862254715z" style="fill:rgb(238,238,238); fill-opacity: 0.4"></path><path d="M419.8094152788893,-7.0983522564125785L408.4107649772815,-9.608167786985897M408.4107649772815,-9.608167786985897L398.1457410270337,-6.821178716798792" style="fill:none;stroke:rgb(0,0,0);stroke-width:1;stroke-linecap:round"></path><path d="M409.5443913286415,-4.3113631862254715L409.5443913286415,189.70989038475457L419.8094152788893,-7.098352256412577zM442.4339437328587,175.68556496579166L452.6989676831065,172.89857589560455L464.09761798471425,175.40839142617784z" style="fill:rgb(238,238,238); fill-opacity: 0.4"></path><path d="M432.82445540497116,176.57194867133683h22.130205712807694v11.065102856404001h-22.130205712807694z" style="fill:rgb(255,255,255)"></path><path d="M464.09761798471425,23.919382317548852L464.09761798471425,175.40839142617784M464.09761798471425,175.40839142617784L453.83259403446647,178.19538049636498M442.43394373285867,24.19655585716264L442.43394373285867,175.68556496579166M442.43394373285867,175.68556496579166L453.83259403446647,178.19538049636498" style="fill:none;stroke:rgb(0,0,0);stroke-width:1;stroke-linecap:round"></path><path d="M453.83259403446647,178.19538049636498L442.4339437328587,175.68556496579166L464.09761798471425,175.40839142617784z" style="fill:rgb(238,238,238); fill-opacity: 0.4"></path><path d="M419.8094152788893,-7.0983522564125785L409.5443913286415,-4.311363186225473" style="fill:none;stroke:rgb(0,0,0);stroke-width:1;stroke-linecap:round"></path><path d="M409.5443913286415,-4.3113631862254715L419.8094152788893,-7.098352256412577L408.4107649772815,-9.608167786985895zM398.1457410270337,-6.821178716798789L409.5443913286415,-4.3113631862254715L408.4107649772815,-9.608167786985895z" style="fill:rgb(238,238,238); fill-opacity: 0.4"></path><path d="M398.1457410270337,-6.821178716798792L409.5443913286415,-4.311363186225473" style="fill:none;stroke:rgb(0,0,0);stroke-width:1;stroke-linecap:round"></path><path d="M464.09761798471425,175.40839142617784L452.6989676831065,172.89857589560455L452.6989676831065,21.409566786975535z" style="fill:rgb(238,238,238); fill-opacity: 0.4"></path><path d="M431.4376737645242,98.38530250256768L434.95879395668675,101.13617600853397L445.9219781018664,98.1854760388764zM437.1349658289022,90.84062697128532L432.78262208447126,92.0223031665107L445.9219781018664,98.1854760388764zM432.78262208447126,92.0223031665107L431.4376737645242,98.38530250256768L445.9219781018664,98.1854760388764z" style="fill:rgb(0,0,0)"></path><path d="M452.6989676831065,172.89857589560455L442.4339437328587,175.68556496579166L442.4339437328587,24.19655585716264z" style="fill:rgb(238,238,238); fill-opacity: 0.4"></path><path d="M453.83259403446647,26.70637138773596L453.83259403446647,178.19538049636498" style="fill:none;stroke:rgb(0,0,0);stroke-width:1;stroke-linecap:round"></path><path d="M453.83259403446647,178.19538049636498L464.09761798471425,175.40839142617784L464.09761798471425,23.919382317548852zM452.6989676831065,21.409566786975535L452.6989676831065,172.89857589560455L442.4339437328587,24.19655585716264zM442.4339437328587,175.68556496579166L453.83259403446647,178.19538049636498L453.83259403446647,26.70637138773596zM464.09761798471425,23.919382317548852L464.09761798471425,175.40839142617784L452.6989676831065,21.409566786975535z" style="fill:rgb(238,238,238); fill-opacity: 0.4"></path><path d="M460.60958361570647,101.41947124446408L479.24699666251183,105.52315610862594M464.09761798471425,23.919382317548852L452.69896768310645,21.409566786975535M452.69896768310645,21.409566786975535L442.43394373285867,24.19655585716264" style="fill:none;stroke:rgb(0,0,0);stroke-width:1;stroke-linecap:round"></path><path d="M442.4339437328587,24.19655585716264L442.4339437328587,175.68556496579166L453.83259403446647,26.70637138773596zM453.83259403446647,26.70637138773596L453.83259403446647,178.19538049636498L464.09761798471425,23.919382317548852z" style="fill:rgb(238,238,238); fill-opacity: 0.4"></path><path d="M508.3858206905392,158.8255867800398L496.9871703889314,156.31577124946648M496.9871703889314,57.495596118685455L496.9871703889314,156.31577124946648M496.9871703889314,156.31577124946648L486.7221464386837,159.10276031965358M464.09761798471425,23.919382317548852L453.83259403446647,26.70637138773596" style="fill:none;stroke:rgb(0,0,0);stroke-width:1;stroke-linecap:round"></path><path d="M453.83259403446647,26.70637138773596L464.09761798471425,23.919382317548852L452.6989676831065,21.409566786975535zM442.4339437328587,24.19655585716264L453.83259403446647,26.70637138773596L452.6989676831065,21.409566786975535z" style="fill:rgb(238,238,238); fill-opacity: 0.4"></path><path d="M442.43394373285867,24.19655585716264L453.83259403446647,26.70637138773596" style="fill:none;stroke:rgb(0,0,0);stroke-width:1;stroke-linecap:round"></path><path d="M486.72214643868375,159.10276031965364L496.98717038893153,156.3157712494665L508.3858206905392,158.82558678003983z" style="fill:rgb(238,238,238); fill-opacity: 0.4"></path><path d="M477.11265811079625,159.98914524016675h22.130205712807694v11.065102856404001h-22.130205712807694z" style="fill:rgb(255,255,255)"></path><path d="M508.3858206905392,60.005411649258775L508.3858206905392,158.8255867800398M508.3858206905392,158.8255867800398L498.1207967402915,161.6125758502269" style="fill:none;stroke:rgb(0,0,0);stroke-width:1;stroke-linecap:round"></path><path d="M475.7258764703493,108.13691484535366L479.24699666251183,110.88778835131994L490.2101808076915,107.93708838166235zM481.42316853472727,100.59223931407128L477.07082479029634,101.77391550929666L490.2101808076915,107.93708838166235z" style="fill:rgb(0,0,0)"></path><path d="M486.7221464386837,60.28258518887256L486.7221464386837,159.10276031965358M486.7221464386837,159.10276031965358L498.1207967402915,161.6125758502269" style="fill:none;stroke:rgb(0,0,0);stroke-width:1;stroke-linecap:round"></path><path d="M508.3858206905392,158.82558678003983L496.98717038893153,156.3157712494665L496.98717038893153,57.495596118685455z" style="fill:rgb(238,238,238); fill-opacity: 0.4"></path><path d="M477.07082479029634,101.77391550929666L475.7258764703493,108.13691484535366L490.2101808076915,107.93708838166235z" style="fill:rgb(0,0,0)"></path><path d="M498.1207967402915,161.61257585022696L486.72214643868375,159.10276031965364L508.3858206905392,158.82558678003983zM496.98717038893153,156.3157712494665L486.72214643868375,159.10276031965364L486.72214643868375,60.28258518887256zM496.98717038893153,57.495596118685455L496.98717038893153,156.3157712494665L486.72214643868375,60.28258518887256z" style="fill:rgb(238,238,238); fill-opacity: 0.4"></path><path d="M498.1207967402915,62.79240071944588L498.1207967402915,161.6125758502269" style="fill:none;stroke:rgb(0,0,0);stroke-width:1;stroke-linecap:round"></path><path d="M498.1207967402915,161.61257585022696L508.3858206905392,158.82558678003983L508.3858206905392,60.005411649258775zM508.3858206905392,60.005411649258775L508.3858206905392,158.82558678003983L496.98717038893153,57.495596118685455z" style="fill:rgb(238,238,238); fill-opacity: 0.4"></path><path d="M508.3858206905392,60.005411649258775L496.9871703889314,57.495596118685455M496.9871703889314,57.495596118685455L486.7221464386837,60.28258518887256" style="fill:none;stroke:rgb(0,0,0);stroke-width:1;stroke-linecap:round"></path><path d="M486.72214643868375,159.10276031965364L498.1207967402915,161.61257585022696L498.1207967402915,62.79240071944588z" style="fill:rgb(238,238,238); fill-opacity: 0.4"></path><path d="M504.8977863215315,111.17108358725004L523.5351993683369,115.2747684514119" style="fill:none;stroke:rgb(0,0,0);stroke-width:1;stroke-linecap:round"></path><path d="M486.72214643868375,60.28258518887256L486.72214643868375,159.10276031965364L498.1207967402915,62.79240071944588zM498.1207967402915,62.79240071944588L498.1207967402915,161.61257585022696L508.3858206905392,60.005411649258775z" style="fill:rgb(238,238,238); fill-opacity: 0.4"></path><path d="M508.3858206905392,60.005411649258775L498.1207967402915,62.79240071944588" style="fill:none;stroke:rgb(0,0,0);stroke-width:1;stroke-linecap:round"></path><path d="M498.1207967402915,62.79240071944588L508.3858206905392,60.005411649258775L496.98717038893153,57.495596118685455zM486.72214643868375,60.28258518887256L498.1207967402915,62.79240071944588L496.98717038893153,57.495596118685455z" style="fill:rgb(238,238,238); fill-opacity: 0.4"></path><path d="M486.7221464386837,60.28258518887256L498.1207967402915,62.79240071944588M552.6740233963643,161.1402427445288L541.2753730947566,158.63042721395547M541.2753730947566,74.68416483976839L541.2753730947566,158.63042721395547M541.2753730947566,158.63042721395547L531.0103491445087,161.41741628414258" style="fill:none;stroke:rgb(0,0,0);stroke-width:1;stroke-linecap:round"></path><path d="M531.0103491445087,161.41741628414263L541.2753730947566,158.6304272139555L552.6740233963643,161.14024274452885z" style="fill:rgb(238,238,238); fill-opacity: 0.4"></path><path d="M520.0140791761744,117.88852718813959L523.5351993683369,120.63940069410587L534.4983835135165,117.68870072444831zM525.7113712405524,110.34385165685723L521.3590274961214,111.5255278520826L534.4983835135165,117.68870072444831z" style="fill:rgb(0,0,0)"></path><path d="M521.4008608166212,162.3037981554241h22.130205712807694v11.065102856404001h-22.130205712807694z" style="fill:rgb(255,255,255)"></path><path d="M552.6740233963643,77.1939803703417L552.6740233963643,161.1402427445288M552.6740233963643,161.1402427445288L542.4089994461166,163.9272318147159" style="fill:none;stroke:rgb(0,0,0);stroke-width:1;stroke-linecap:round"></path><path d="M552.6740233963643,161.14024274452885L541.2753730947566,158.6304272139555L541.2753730947566,74.68416483976839z" style="fill:rgb(238,238,238); fill-opacity: 0.4"></path><path d="M521.3590274961214,111.5255278520826L520.0140791761744,117.88852718813959L534.4983835135165,117.68870072444831z" style="fill:rgb(0,0,0)"></path><path d="M531.0103491445087,77.47115390995549L531.0103491445087,161.41741628414258M531.0103491445087,161.41741628414258L542.4089994461166,163.9272318147159" style="fill:none;stroke:rgb(0,0,0);stroke-width:1;stroke-linecap:round"></path><path d="M542.4089994461165,163.92723181471595L531.0103491445087,161.41741628414263L552.6740233963643,161.14024274452885zM541.2753730947566,158.6304272139555L531.0103491445087,161.41741628414263L531.0103491445087,77.47115390995549zM541.2753730947566,74.68416483976839L541.2753730947566,158.6304272139555L531.0103491445087,77.47115390995549zM542.4089994461165,163.92723181471595L552.6740233963643,161.14024274452885L552.6740233963643,77.1939803703417zM552.6740233963643,77.1939803703417L552.6740233963643,161.14024274452885L541.2753730947566,74.68416483976839z" style="fill:rgb(238,238,238); fill-opacity: 0.4"></path><path d="M542.4089994461166,79.98096944052882L542.4089994461166,163.9272318147159M552.6740233963643,77.1939803703417L541.2753730947566,74.68416483976839M541.2753730947566,74.68416483976839L531.0103491445087,77.47115390995549" style="fill:none;stroke:rgb(0,0,0);stroke-width:1;stroke-linecap:round"></path><path d="M531.0103491445087,161.41741628414263L542.4089994461165,163.92723181471595L542.4089994461165,79.9809694405288z" style="fill:rgb(238,238,238); fill-opacity: 0.4"></path><path d="M549.1859890273566,120.92269593003599L567.8234020741619,125.02638079419785" style="fill:none;stroke:rgb(0,0,0);stroke-width:1;stroke-linecap:round"></path><path d="M531.0103491445087,77.47115390995549L531.0103491445087,161.41741628414263L542.4089994461165,79.9809694405288z" style="fill:rgb(238,238,238); fill-opacity: 0.4"></path><path d="M552.6740233963643,77.1939803703417L542.4089994461166,79.98096944052882" style="fill:none;stroke:rgb(0,0,0);stroke-width:1;stroke-linecap:round"></path><path d="M542.4089994461165,79.9809694405288L542.4089994461165,163.92723181471595L552.6740233963643,77.1939803703417zM542.4089994461165,79.9809694405288L552.6740233963643,77.1939803703417L541.2753730947566,74.68416483976839zM531.0103491445087,77.47115390995549L542.4089994461165,79.9809694405288L541.2753730947566,74.68416483976839z" style="fill:rgb(238,238,238); fill-opacity: 0.4"></path><path d="M531.0103491445087,77.47115390995549L542.4089994461166,79.98096944052882M596.9622261021893,153.62376768291645L585.5635758005816,151.11395215234313M585.5635758005816,101.70386458695263L585.5635758005816,151.11395215234313M585.5635758005816,151.11395215234313L575.2985518503338,153.90094122253024" style="fill:none;stroke:rgb(0,0,0);stroke-width:1;stroke-linecap:round"></path><path d="M564.3022818819994,127.64013953092554L567.8234020741619,130.39101303689182L578.7865862193416,127.44031306723426zM569.9995739463774,120.09546399964317L565.6472302019465,121.27714019486854L578.7865862193416,127.44031306723426zM565.6472302019465,121.27714019486854L564.3022818819994,127.64013953092554L578.7865862193416,127.44031306723426z" style="fill:rgb(0,0,0)"></path><path d="M575.2985518503339,153.90094122253024L585.5635758005816,151.11395215234313L596.9622261021893,153.62376768291645zM596.9622261021893,153.62376768291645L585.5635758005816,151.11395215234313L585.5635758005816,101.70386458695263z" style="fill:rgb(238,238,238); fill-opacity: 0.4"></path><path d="M565.6890635224463,154.787325462894h22.130205712807694v11.065102856403913h-22.130205712807694z" style="fill:rgb(255,255,255)"></path><path d="M596.9622261021893,104.21368011752595L596.9622261021893,153.62376768291645M596.9622261021893,153.62376768291645L586.6972021519416,156.41075675310356M575.2985518503338,104.49085365713974L575.2985518503338,153.90094122253024M575.2985518503338,153.90094122253024L586.6972021519416,156.41075675310356" style="fill:none;stroke:rgb(0,0,0);stroke-width:1;stroke-linecap:round"></path><path d="M585.5635758005816,151.11395215234313L575.2985518503339,153.90094122253024L575.2985518503339,104.49085365713974zM585.5635758005816,101.70386458695263L585.5635758005816,151.11395215234313L575.2985518503339,104.49085365713974z" style="fill:rgb(238,238,238); fill-opacity: 0.4"></path><path d="M596.9622261021893,104.21368011752595L585.5635758005816,101.70386458695263M585.5635758005816,101.70386458695263L575.2985518503338,104.49085365713974" style="fill:none;stroke:rgb(0,0,0);stroke-width:1;stroke-linecap:round"></path><path d="M586.6972021519416,156.41075675310356L575.2985518503339,153.90094122253024L596.9622261021893,153.62376768291645zM596.9622261021893,104.21368011752595L596.9622261021893,153.62376768291645L585.5635758005816,101.70386458695263zM586.6972021519416,156.41075675310356L596.9622261021893,153.62376768291645L596.9622261021893,104.21368011752595z" style="fill:rgb(238,238,238); fill-opacity: 0.4"></path><path d="M586.6972021519416,107.00066918771306L586.6972021519416,156.41075675310356" style="fill:none;stroke:rgb(0,0,0);stroke-width:1;stroke-linecap:round"></path><path d="M575.2985518503339,153.90094122253024L586.6972021519416,156.41075675310356L586.6972021519416,107.00066918771306z" style="fill:rgb(238,238,238); fill-opacity: 0.4"></path><path d="M596.9622261021893,104.21368011752595L586.6972021519416,107.00066918771306" style="fill:none;stroke:rgb(0,0,0);stroke-width:1;stroke-linecap:round"></path><path d="M575.2985518503339,104.49085365713974L575.2985518503339,153.90094122253024L586.6972021519416,107.00066918771306zM586.6972021519416,107.00066918771306L596.9622261021893,104.21368011752595L585.5635758005816,101.70386458695263zM575.2985518503339,104.49085365713974L586.6972021519416,107.00066918771306L585.5635758005816,101.70386458695263z" style="fill:rgb(238,238,238); fill-opacity: 0.4"></path><path d="M593.4741917331817,130.67430827282195L612.1116047799869,134.7779931369838M575.2985518503338,104.49085365713974L586.6972021519416,107.00066918771306" style="fill:none;stroke:rgb(0,0,0);stroke-width:1;stroke-linecap:round"></path><path d="M586.6972021519416,107.00066918771306L586.6972021519416,156.41075675310356L596.9622261021893,104.21368011752595z" style="fill:rgb(238,238,238); fill-opacity: 0.4"></path><path d="M608.5904845878244,137.3917518737115L612.1116047799869,140.14262537967778L623.0747889251666,137.19192541002022zM614.2877766522024,129.84707634242915L609.9354329077715,131.0287525376545L623.0747889251666,137.19192541002022z" style="fill:rgb(0,0,0)"></path><path d="M641.2504288080145,139.74326269154597L629.8517785064066,137.23344716097264M629.8517785064066,135.08759426389506L629.8517785064066,137.23344716097264M629.8517785064066,137.23344716097264L619.5867545561589,140.02043623115975" style="fill:none;stroke:rgb(0,0,0);stroke-width:1;stroke-linecap:round"></path><path d="M609.9354329077715,131.0287525376545L608.5904845878244,137.3917518737115L623.0747889251666,137.19192541002022z" style="fill:rgb(0,0,0)"></path><path d="M641.2504288080145,137.59740979446838L629.8517785064066,135.08759426389506M629.8517785064066,135.08759426389506L619.5867545561589,137.87458333408216" style="fill:none;stroke:rgb(0,0,0);stroke-width:1;stroke-linecap:round"></path><path d="M641.2504288080144,139.74326269154597L629.8517785064066,137.23344716097264L629.8517785064066,135.08759426389506zM629.8517785064066,135.08759426389506L629.8517785064066,137.23344716097264L619.5867545561589,137.87458333408216zM641.2504288080144,137.59740979446838L641.2504288080144,139.74326269154597L629.8517785064066,135.08759426389506zM619.5867545561589,140.02043623115975L629.8517785064066,137.23344716097264L641.2504288080144,139.74326269154597zM629.8517785064066,137.23344716097264L619.5867545561589,140.02043623115975L619.5867545561589,137.87458333408216z" style="fill:rgb(238,238,238); fill-opacity: 0.4"></path><path d="M609.9772662282713,139.83389334283515h22.130205712807694v11.065102856403913h-22.130205712807694z" style="fill:rgb(255,255,255)"></path><path d="M641.2504288080145,137.59740979446838L641.2504288080145,139.74326269154597M641.2504288080145,139.74326269154597L630.9854048577666,142.53025176173307M641.2504288080145,137.59740979446838L630.9854048577666,140.38439886465548" style="fill:none;stroke:rgb(0,0,0);stroke-width:1;stroke-linecap:round"></path><path d="M630.9854048577666,140.38439886465548L641.2504288080144,137.59740979446838L629.8517785064066,135.08759426389506z" style="fill:rgb(238,238,238); fill-opacity: 0.4"></path><path d="M619.5867545561589,137.87458333408216L619.5867545561589,140.02043623115975M619.5867545561589,140.02043623115975L630.9854048577666,142.53025176173307" style="fill:none;stroke:rgb(0,0,0);stroke-width:1;stroke-linecap:round"></path><path d="M619.5867545561589,137.87458333408216L630.9854048577666,140.38439886465548L629.8517785064066,135.08759426389506z" style="fill:rgb(238,238,238); fill-opacity: 0.4"></path><path d="M619.5867545561589,137.87458333408216L630.9854048577666,140.38439886465548" style="fill:none;stroke:rgb(0,0,0);stroke-width:1;stroke-linecap:round"></path><path d="M630.9854048577666,142.53025176173307L641.2504288080144,139.74326269154597L641.2504288080144,137.59740979446838zM630.9854048577666,142.53025176173307L619.5867545561589,140.02043623115975L641.2504288080144,139.74326269154597zM619.5867545561589,137.87458333408216L619.5867545561589,140.02043623115975L630.9854048577666,140.38439886465548zM630.9854048577666,140.38439886465548L630.9854048577666,142.53025176173307L641.2504288080144,137.59740979446838zM619.5867545561589,140.02043623115975L630.9854048577666,142.53025176173307L630.9854048577666,140.38439886465548z" style="fill:rgb(238,238,238); fill-opacity: 0.4"></path><path d="M630.9854048577666,140.38439886465548L630.9854048577666,142.53025176173307" style="fill:none;stroke:rgb(0,0,0);stroke-width:1;stroke-linecap:round"></path></svg>